# xmcd CD database file
#
# Track frame offsets:
#	150
#	16670
#	36810
#	54802
#	70927
#	90120
#	110097
#	134140
#	154855
#	178950
#	198352
#	218507
#	233155
#	253300
#	274952
#	291402
#
# Disc length: 4134 seconds
#
# Revision: 3
# Processed by: cddbd v1.5PL3 Copyright (c) Steve Scherf et al.
# Submitted via: CDex 1.40Release
#
DISCID=ea102410
DTITLE=The Emotions - Best of My Love, The Best of the Emotions
DYEAR=1900
DGENRE=
TTITLE0=Best of My Love
TTITLE1=Flowers
TTITLE2=I Don't Wanna Lose Your Love
TTITLE3=A Feeling Is
TTITLE4=Me For You
TTITLE5=Don't Ask My Neighbor
TTITLE6=Key to My Heart
TTITLE7=Blessed
TTITLE8=Rejoice
TTITLE9=Love is Right on
TTITLE10=All Night, All Right
TTITLE11=Smile
TTITLE12=Walking The Line
TTITLE13=Boogie Wonderland
TTITLE14='Cause I Love You
TTITLE15=Yes, I Am
EXTD=
EXTT0=
EXTT1=
EXTT2=
EXTT3=
EXTT4=
EXTT5=
EXTT6=
EXTT7=
EXTT8=
EXTT9=
EXTT10=
EXTT11=
EXTT12=
EXTT13=
EXTT14=
EXTT15=
PLAYORDER=
